
<svg display="none" xmlns="http://www.w3.org/2000/svg">

<symbol width="66" height="53" viewBox="0 0 66 53" id="burger">
<path d="M11 13.25H55V17.6667H11V13.25ZM22 24.2917H55V28.7083H22V24.2917ZM35.75 35.3333H55V39.75H35.75V35.3333Z" fill="white"/>
</symbol>

<symbol width="64" height="64" viewBox="0 0 100 100" id="cross">
		<path d="M53.657,48l25.171-25.172c1.562-1.562,1.562-4.095,0-5.656c-1.562-1.562-4.094-1.562-5.656,0L48,42.343L22.829,17.172
			c-1.562-1.562-4.095-1.562-5.657,0c-1.562,1.562-1.562,4.095,0,5.656L42.344,48L17.172,73.172c-1.562,1.562-1.562,4.095,0,5.656
			C17.953,79.609,18.977,80,20,80s2.048-0.391,2.829-1.172L48,53.657l25.172,25.171C73.953,79.609,74.977,80,76,80
			s2.048-0.391,2.828-1.172c1.562-1.562,1.562-4.095,0-5.656L53.657,48z"/>
</symbol>
</svg>

