
<svg display="none" xmlns="http://www.w3.org/2000/svg">

<symbol width="66" height="53" viewBox="0 0 66 53" id="burger">
<path d="M11 13.25H55V17.6667H11V13.25ZM22 24.2917H55V28.7083H22V24.2917ZM35.75 35.3333H55V39.75H35.75V35.3333Z" fill="white"/>
</symbol>

<symbol width="64" height="64" viewBox="0 0 100 100" id="cross">
		<path d="M53.657,48l25.171-25.172c1.562-1.562,1.562-4.095,0-5.656c-1.562-1.562-4.094-1.562-5.656,0L48,42.343L22.829,17.172
			c-1.562-1.562-4.095-1.562-5.657,0c-1.562,1.562-1.562,4.095,0,5.656L42.344,48L17.172,73.172c-1.562,1.562-1.562,4.095,0,5.656
			C17.953,79.609,18.977,80,20,80s2.048-0.391,2.829-1.172L48,53.657l25.172,25.171C73.953,79.609,74.977,80,76,80
			s2.048-0.391,2.828-1.172c1.562-1.562,1.562-4.095,0-5.656L53.657,48z"/>
</symbol>

<symbol width="32" height="62" viewBox="0 0 32 62" id="knife">
<path d="M10.6464 32.6089L14.4197 28.8355L6.16636 20.5955C5.52636 19.9555 4.41969 20.1289 4.01969 20.9555C3.07302 22.9422 3.41969 25.3822 5.05969 27.0355L10.6464 32.6089ZM19.6864 30.1955C21.7264 31.1422 24.593 30.4755 26.713 28.3555C29.2597 25.8089 29.753 22.1555 27.793 20.1955C25.8464 18.2489 22.193 18.7289 19.633 21.2755C17.513 23.3955 16.8464 26.2622 17.793 28.3022L5.71302 40.3822C5.46372 40.6315 5.32366 40.9696 5.32366 41.3222C5.32366 41.6748 5.46372 42.0129 5.71302 42.2622C5.96233 42.5115 6.30046 42.6516 6.65302 42.6516C7.00559 42.6516 7.34372 42.5115 7.59302 42.2622L15.8464 34.0355L24.0864 42.2755C24.2098 42.399 24.3563 42.4969 24.5176 42.5637C24.6789 42.6305 24.8518 42.6649 25.0264 42.6649C25.2009 42.6649 25.3738 42.6305 25.5351 42.5637C25.6964 42.4969 25.8429 42.399 25.9664 42.2755C26.0898 42.1521 26.1877 42.0055 26.2545 41.8443C26.3213 41.683 26.3557 41.5101 26.3557 41.3355C26.3557 41.161 26.3213 40.9881 26.2545 40.8268C26.1877 40.6655 26.0898 40.519 25.9664 40.3955L17.7264 32.1555L19.6864 30.1955Z" fill="#02E4C0"/>
</symbol>

<symbol width="34" height="60" viewBox="0 0 34 60" id="ufo">
<path d="M14.5495 28.395C16.0285 30.855 15.811 33.75 14.042 34.92C12.273 36.06 9.634 34.995 8.1405 32.535C6.6615 30.075 6.8935 27.15 8.6625 26.01C10.4315 24.87 13.0705 25.935 14.5495 28.395ZM17 38.625C19.9 38.625 20.625 37.5 20.625 37.5C20.625 37.5 19.9 40.5 17 40.5C14.1 40.5 13.375 37.545 13.375 37.5C13.375 37.5 14.1 38.625 17 38.625ZM25.3375 26.01C27.1065 27.15 27.3385 30.075 25.8595 32.535C24.366 34.995 21.727 36.06 19.958 34.92C18.189 33.75 17.9715 30.855 19.4505 28.395C20.9295 25.935 23.5685 24.87 25.3375 26.01ZM17 42C20.625 42 28.6 34.29 28.6 28.5C28.6 22.71 23.3945 18 17 18C10.6055 18 5.4 22.71 5.4 28.5C5.4 34.29 13.375 42 17 42ZM17 15C24.975 15 31.5 21.06 31.5 28.5C31.5 34.62 23.264 45 17 45C10.736 45 2.5 34.62 2.5 28.5C2.5 21.06 9.025 15 17 15Z" fill="#02E4C0"/>
</symbol>

<symbol width="41" height="53" viewBox="0 0 41 53" id="infinity">
<g clip-path="url(#clip0_62_2518)">
<path d="M32.275 17C29.815 17 27.4917 17.9889 25.8346 19.7017L13.825 30.7203C12.7317 31.8504 11.2796 32.4684 9.725 32.4684C6.53042 32.4684 3.91667 29.8021 3.91667 26.5C3.91667 23.198 6.53042 20.5316 9.725 20.5316C11.2796 20.5316 12.7317 21.1497 13.8933 22.3504L15.8238 24.1162L18.4375 21.75L16.2508 19.79C15.3953 18.9024 14.3782 18.1988 13.2581 17.7199C12.1379 17.2411 10.9371 16.9964 9.725 17C4.63417 17 0.5 21.2733 0.5 26.5C0.5 31.7268 4.63417 36 9.725 36C12.185 36 14.5083 35.0112 16.1654 33.2983L28.175 22.2798C29.2683 21.1497 30.7204 20.5316 32.275 20.5316C35.4696 20.5316 38.0833 23.198 38.0833 26.5C38.0833 29.8021 35.4696 32.4684 32.275 32.4684C30.7375 32.4684 29.2683 31.8504 28.1067 30.6496L26.125 28.8662L23.5625 31.2324L25.7492 33.21C26.607 34.0932 27.625 34.7927 28.7448 35.2684C29.8646 35.7442 31.0643 35.9868 32.275 35.9823C37.3658 35.9823 41.5 31.7268 41.5 26.5C41.5 21.2026 37.3658 17 32.275 17Z" fill="#02E4C0"/>
</g>
</symbol>
</svg>




